# xmcd CD database file generated by OrangeCD 5.2
#
# Track frame offsets:
#	182
#	13452
#	25477
#	37272
#	52425
#	65632
#	82717
#	97187
#	112830
#	127137
#	143442
#	159712
#
# Disc length: 2255 seconds
#
# Revision: 5
# Processed by: cddbd v1.5.1PL0 Copyright (c) Steve Scherf et al.
# Submitted via: OrangeCD 5.2
#
DISCID=b008cd0c
DTITLE=Marty Stuart - The Marty Party Hit Pack
DYEAR=1995
DGENRE=Country
TTITLE0=If I Ain't Got You
TTITLE1=Marty Stuart and Travis Tritt - The Whiskey Ain't Workin'
TTITLE2=Hillbilly Rock
TTITLE3=Now That's Country
TTITLE4=Burn Me Down
TTITLE5=The Likes Of Me
TTITLE6=Tempted
TTITLE7=Marty Stuart and Travis Tritt - This One's Gonna Hurt You (For A Long L
TTITLE7=ong Time) 
TTITLE8=Little Things
TTITLE9=Marty Stuart and The Staple Singers - The Weight
TTITLE10=Western Girls
TTITLE11=Don't Be Cruel (To A Heart That's True)
EXTD=
EXTT0=
EXTT1=
EXTT2=
EXTT3=
EXTT4=
EXTT5=
EXTT6=
EXTT7=Travis Tritt And Marty Stuart
EXTT8=
EXTT9=The Staple Singers and Marty Stuart
EXTT10=
EXTT11=
PLAYORDER=
